<?xml version="1.0" standalone="no"?>
<!DOCTYPE svg PUBLIC "-//W3C//DTD SVG 20010904//EN"
 "http://www.w3.org/TR/2001/REC-SVG-20010904/DTD/svg10.dtd">
<svg version="1.0" xmlns="http://www.w3.org/2000/svg"
 width="480.000000pt" height="270.000000pt" viewBox="0 0 480.000000 270.000000"
 preserveAspectRatio="xMidYMid meet">

<g transform="translate(0.000000,270.000000) scale(0.100000,-0.100000)"
fill="#000000" stroke="none">
<path d="M2442 2281 c-98 -34 -154 -108 -197 -259 -22 -77 -25 -103 -19 -158
6 -65 6 -66 -14 -55 -12 6 -24 16 -27 21 -14 23 -74 45 -137 50 -38 3 -68 2
-68 -2 0 -5 -7 -8 -15 -8 -9 0 -27 -11 -41 -25 -23 -23 -24 -27 -10 -47 24
-33 19 -68 -14 -117 -17 -24 -35 -63 -42 -85 -24 -87 -10 -289 28 -399 9 -26
13 -51 9 -55 -4 -4 -10 -1 -12 5 -3 9 -10 10 -22 3 -14 -7 -18 -22 -18 -63 0
-67 -25 -143 -65 -198 -23 -32 -28 -46 -21 -58 19 -30 134 -101 173 -107 36
-6 39 -9 34 -31 -4 -16 0 -31 11 -43 10 -11 16 -21 14 -23 -2 -2 -31 -9 -64
-17 -49 -12 -61 -19 -63 -38 -10 -66 287 -99 305 -34 4 15 23 17 176 17 95 0
186 4 202 8 17 3 74 28 129 55 76 37 95 50 85 59 -12 9 -70 35 -188 84 -22 9
-23 13 -18 75 5 65 5 65 67 121 34 31 75 65 92 77 38 25 89 123 96 182 2 23
-1 58 -8 76 -22 60 -40 162 -40 223 0 71 24 216 46 277 48 136 13 360 -68 435
-72 67 -193 90 -296 54z m184 -57 c90 -30 139 -100 132 -186 -3 -31 0 -55 8
-66 7 -9 13 -30 13 -47 l0 -30 -17 24 c-9 14 -34 45 -54 70 -21 25 -38 51 -38
58 0 17 -10 16 -31 -3 -13 -12 -44 -18 -111 -21 -51 -2 -104 -6 -117 -9 l-24
-5 24 -25 c61 -65 218 -134 306 -134 51 0 50 8 12 -95 -33 -90 -37 -242 -9
-332 29 -93 29 -192 1 -265 -43 -111 -185 -232 -312 -264 -55 -14 -67 -14
-134 1 l-73 16 -10 59 c-12 65 -46 140 -65 141 -43 3 -128 19 -140 26 -5 3 0
11 9 18 16 11 15 14 -14 29 -47 24 -84 106 -48 106 26 0 24 24 -6 77 -34 61
-41 147 -19 226 13 44 31 64 31 33 0 -8 24 -41 54 -73 29 -32 59 -76 66 -98
26 -83 27 -83 38 -55 14 37 -3 128 -30 159 -13 14 -39 40 -58 57 -34 31 -34
31 -21 71 14 42 9 76 -16 105 -14 15 -12 18 22 32 21 9 44 16 52 16 21 0 65
-25 87 -49 10 -11 34 -25 52 -31 37 -13 40 -22 25 -98 -7 -37 -7 -41 7 -30 41
34 62 130 65 288 2 77 6 92 40 160 42 82 67 113 112 141 38 24 123 25 191 3z
m48 -251 c19 -21 33 -39 31 -41 -1 -1 -18 6 -36 17 -19 10 -56 22 -84 25 -27
4 -66 10 -85 14 -31 6 -26 8 35 13 39 3 78 6 87 7 10 1 33 -15 52 -35z m-83
-38 c31 -8 64 -22 75 -31 18 -14 17 -14 -16 -8 -44 8 -132 42 -145 56 -7 7 -4
8 10 5 11 -3 45 -13 76 -22z m-668 -862 c-7 -2 -13 -15 -13 -27 0 -27 -19 -87
-32 -101 -5 -5 -2 10 7 34 8 24 15 56 15 72 0 21 5 29 18 28 10 0 12 -3 5 -6z
m202 -45 c18 -61 20 -165 3 -219 -9 -33 -15 -39 -37 -38 -23 2 -23 2 -4 6 13
3 26 16 32 35 14 40 13 162 -3 213 l-12 40 -79 -1 -80 -1 70 7 c39 3 75 7 82
8 7 1 19 -21 28 -50z m-133 -55 c28 -31 52 -72 45 -79 -2 -3 -10 9 -16 25 -18
43 -58 78 -73 63 -14 -14 19 -90 57 -134 31 -36 35 -35 36 5 2 31 2 32 6 3 3
-16 -1 -34 -7 -40 -14 -14 -59 38 -91 106 -18 39 -20 50 -9 63 17 21 22 19 52
-12z m-133 -60 c-7 -10 -21 -28 -32 -39 l-19 -22 65 -32 c35 -17 86 -35 113
-39 37 -7 41 -9 18 -10 -38 -1 -103 21 -161 55 l-43 25 32 39 c31 39 54 57 27
23z m378 -54 c15 -6 61 -12 102 -13 l75 -1 8 -34 c5 -18 8 -35 6 -37 -2 -1
-21 1 -43 6 -22 5 -80 10 -129 10 -76 0 -87 2 -82 16 3 9 9 27 12 40 7 27 12
28 51 13z m263 -6 c0 -14 -2 -15 -9 -4 -5 8 -11 9 -15 3 -3 -6 0 -16 7 -24 8
-7 17 -30 21 -51 7 -40 48 -75 115 -98 l33 -12 -45 -19 -46 -20 -53 21 c-29
12 -41 19 -26 16 28 -5 28 -5 24 44 -3 27 -14 71 -25 97 -17 37 -19 49 -9 56
20 12 28 10 28 -9z"/>
<path d="M2501 2142 c-12 -23 4 -52 29 -52 25 0 41 30 29 53 -13 22 -46 22
-58 -1z"/>
<path d="M2524 688 c1 -26 6 -33 26 -38 31 -8 77 9 58 22 -20 12 -28 10 -29
-9 -1 -12 -3 -10 -8 6 -3 13 -16 30 -27 38 -20 13 -21 12 -20 -19z"/>
</g>
</svg>
